<svg version="1.1" id="Layer_1" xmlns="http://www.w3.org/2000/svg" xmlns:xlink="http://www.w3.org/1999/xlink" x="0px" y="0px" width="100%" viewBox="333 65 360 435" xml:space="preserve">
  <defs>
    <linearGradient id="czGradient" x1="0%" y1="0%" x2="100%" y2="100%">
  	<stop offset="0%"   stop-color="#FFFFFF"/>
  	<stop offset="100%" stop-color="#FFFFFF"/>
    </linearGradient>
  </defs>

  <path fill="url(#czGradient)" opacity="1.000000" stroke="none"
    d="
M559.534180,458.611542
  C553.897766,463.649109 549.164001,462.611725 543.400330,458.685791
  C532.812073,451.473480 521.622620,445.132019 510.569733,438.621124
  C507.185577,436.627594 505.738037,434.233124 505.752686,430.201263
  C505.867310,398.703430 505.809479,367.204681 505.701263,335.706635
  C505.690308,332.514374 506.683136,329.961090 508.482330,327.412811
  C528.375549,299.237152 548.204407,271.015961 568.044495,242.802704
  C568.806152,241.719543 569.504761,240.592010 570.714294,238.753052
  C557.264465,230.394302 543.944641,222.116318 530.612671,213.830826
  C528.743286,215.945831 529.400269,218.047348 529.385498,219.933838
  C529.295410,231.432449 529.227051,242.933640 529.393188,254.430466
  C529.446594,258.125916 528.136536,259.532684 524.466736,259.367096
  C519.975952,259.164490 515.460938,259.140167 510.972137,259.360260
  C507.081970,259.551025 505.637360,258.027557 505.671600,254.143097
  C505.795013,240.145004 505.703339,226.145035 505.694763,212.145767
  C505.683258,193.313385 505.608337,174.480621 505.722870,155.649002
  C505.743530,152.253403 504.658630,150.146210 501.675903,148.404053
  C494.053925,143.952164 486.568756,139.257385 479.146057,134.477692
  C476.599060,132.837616 474.506989,132.611557 471.856476,134.277618
  C439.698425,154.491440 407.499756,174.640656 375.277161,194.751419
  C373.000000,196.172638 372.304291,197.982620 372.305817,200.555161
  C372.338989,256.385529 372.334473,312.215973 372.244873,368.046234
  C372.239868,371.158630 373.526520,372.886139 376.044556,374.405426
  C417.696655,399.536194 459.313812,424.724915 500.936401,449.904602
  C511.342468,456.199768 521.745117,462.500549 532.134888,468.822632
  C533.383972,469.582703 534.869324,470.144440 535.436096,472.174255
  C532.845154,475.551300 528.528625,476.790070 525.102966,479.239380
  C523.211304,480.591949 520.998779,481.508484 519.160706,482.920715
  C515.615662,485.644470 512.498840,485.315918 508.697754,483.007996
  C457.433533,451.881592 406.115265,420.843719 354.707153,389.955719
  C350.159149,387.223114 348.521912,384.162994 348.539185,378.805481
  C348.743927,315.309357 348.719543,251.812225 348.582458,188.315735
  C348.572998,183.938522 349.920135,181.361481 353.633087,179.053864
  C392.264648,155.044022 430.843811,130.948547 469.290924,106.644936
  C473.937805,103.707489 477.236572,103.793022 481.812500,106.811859
  C495.714752,115.983444 509.878845,124.773102 524.163391,133.340561
  C528.152466,135.733047 529.533142,138.417496 529.423767,142.941360
  C529.141846,154.600479 529.582764,166.278580 529.227539,177.933655
  C529.085571,182.594559 530.772827,185.200027 534.601990,187.530045
  C554.527283,199.654404 574.327515,211.984497 594.158752,224.263260
  C602.907654,229.680283 603.901245,234.473831 597.890503,242.976974
  C576.254150,273.585052 554.607056,304.185730 532.857056,334.713013
  C530.419739,338.133911 529.149231,341.555695 529.264282,345.795746
  C529.494690,354.289154 529.457458,362.795410 529.284790,371.291351
  C529.219604,374.499390 530.216125,376.569458 533.063293,378.171875
  C537.995911,380.948059 542.787109,383.985992 547.546936,387.054749
  C550.413391,388.902802 552.908630,388.789459 555.838013,386.977570
  C574.683472,375.321014 593.576782,363.740417 612.550171,352.293488
  C615.686768,350.401123 617.027283,348.116638 616.672668,344.560669
  C616.317444,340.998993 617.242371,337.325989 615.992126,333.555450
  C612.614136,334.087799 610.347534,336.156067 607.863220,337.671997
  C590.371887,348.345428 572.935730,359.109070 555.459167,369.806763
  C550.551758,372.810699 544.834900,369.699219 544.704041,363.907562
  C544.576050,358.244141 544.791382,352.572540 544.641663,346.910187
  C544.553894,343.591095 546.403015,341.234039 548.109253,338.815033
  C565.299927,314.443359 582.541931,290.107910 599.757996,265.754150
  C602.643494,261.672394 604.915955,256.976013 608.439087,253.561829
  C617.424561,244.854141 617.142639,234.061737 616.720581,222.980011
  C616.608215,220.029922 614.710999,219.021042 612.743591,217.795197
  C591.814575,204.755112 570.957520,191.596939 549.893799,178.778214
  C545.659790,176.201492 543.632263,173.328384 543.954285,168.390533
  C544.403137,161.507538 543.353699,154.533401 544.618164,147.715164
  C547.418030,147.503067 548.963989,148.909332 550.606323,149.935928
  C579.143799,167.774765 607.637939,185.683273 636.222107,203.446899
  C638.824829,205.064377 640.069397,206.952179 640.018982,209.869858
  C639.791687,223.029114 639.543518,236.188019 639.345886,249.347717
  C639.307617,251.895432 637.763672,253.683380 636.442383,255.568817
  C623.247864,274.396515 610.018921,293.200073 596.813049,312.019836
  C595.777954,313.494904 594.843140,315.040344 594.619202,317.547424
  C609.190857,308.628876 623.762512,299.710358 638.073608,290.951324
  C640.470703,292.365784 640.066650,294.192932 640.032532,295.768524
  C639.574890,316.921051 639.524597,338.073273 640.108826,359.222687
  C640.197754,362.441345 638.953857,364.428101 636.220825,366.092987
  C609.614868,382.300842 583.022888,398.533081 556.559448,414.971863
  C552.859009,417.270538 550.058228,417.154663 546.583496,414.873352
  C541.373535,411.452759 535.912231,408.414856 530.018799,404.891968
  C528.859680,410.675873 529.402100,415.462189 529.473511,420.218384
  C529.495911,421.710510 530.679504,422.501770 531.852051,423.206085
  C537.422058,426.551971 543.041443,429.820282 548.528381,433.297516
  C550.821167,434.750549 552.690552,434.638641 554.954224,433.249268
  C587.188110,413.465515 619.443787,393.717163 651.749756,374.051483
  C654.337646,372.476105 654.754089,370.386749 654.745422,367.752411
  C654.708313,356.419800 654.755371,345.086975 654.751465,333.754211
  C654.736450,290.089722 654.664551,246.425125 654.773804,202.760956
  C654.784058,198.653351 653.643494,196.072220 650.042358,193.833694
  C598.820190,161.993286 547.682129,130.017578 496.535095,98.056442
  C494.881683,97.023232 492.909332,96.308899 491.798279,93.670906
  C498.250854,88.708244 505.289490,84.429314 512.452209,80.368294
  C514.368225,79.281990 515.871033,81.142914 517.367371,82.076744
  C566.976929,113.037674 616.367920,144.358154 666.353577,174.699036
  C675.846680,180.461258 678.635132,186.449371 678.542847,197.090485
  C678.019714,257.416107 678.217529,317.749084 678.455322,378.078461
  C678.478455,383.948730 676.853943,387.215790 671.688110,390.319611
  C634.274780,412.799011 597.097534,435.671478 559.534180,458.611542
z"/>

  <path fill="url(#czGradient)" opacity="1.000000" stroke="none"
    d="
M469.822906,153.722107
  C473.738617,150.553497 476.809753,151.500320 480.932709,153.444366
  C489.390503,157.432343 491.693329,163.170883 491.431244,172.343781
  C490.674835,198.815643 491.058258,225.319824 490.968170,251.811203
  C490.942780,259.282867 490.878082,259.314240 483.408997,259.330750
  C479.743530,259.338837 476.066986,259.130280 472.415558,259.351288
  C468.759705,259.572540 467.167694,258.006622 467.191925,254.480789
  C467.227417,249.319336 467.198242,244.156662 467.308014,238.996887
  C467.350586,236.995224 467.597931,235.016891 465.866547,232.554291
  C460.778107,235.876282 455.643311,239.133545 450.625214,242.561569
  C449.088898,243.611069 449.345459,245.533035 449.345123,247.194412
  C449.339813,272.519867 449.339935,297.845337 449.349487,323.170807
  C449.350067,324.655396 449.073822,326.392944 450.545624,327.297455
  C455.585266,330.394623 460.381287,333.968384 466.587891,336.371887
  C467.607147,329.848389 466.898376,323.893982 467.070404,317.991730
  C467.281921,310.734833 467.195038,310.727234 474.306396,310.714111
  C478.638306,310.706146 482.970428,310.739441 487.302155,310.709717
  C489.667694,310.693481 491.157776,311.564178 491.150391,314.154633
  C491.090424,335.144104 491.033813,356.133575 490.949249,377.122955
  C490.947388,377.582733 490.626373,378.041229 490.449921,378.511810
  C488.337250,379.545898 486.948761,377.997528 485.464844,377.106445
  C467.043732,366.044250 448.684601,354.877991 430.204132,343.916229
  C426.945068,341.983093 425.609955,339.746948 425.624115,335.923187
  C425.749878,301.934143 425.753937,267.944244 425.632416,233.955185
  C425.618958,230.187943 426.741882,227.795532 430.011139,225.832352
  C440.291473,219.659027 450.418030,213.229431 460.596436,206.886734
  C468.255219,202.114151 469.957336,195.480652 465.766876,186.675186
  C463.743774,186.294830 462.334808,187.681976 460.840546,188.609497
  C445.840088,197.920563 430.918915,207.360199 415.866425,216.585770
  C412.531494,218.629730 411.115509,220.952988 411.131744,225.007645
  C411.290771,264.661377 411.298096,304.316193 411.152771,343.970001
  C411.137390,348.163696 412.470551,350.526764 416.088013,352.680664
  C439.558441,366.655365 462.846710,380.935822 486.288971,394.958344
  C489.834045,397.078918 491.476807,399.484558 491.269806,403.736786
  C490.932434,410.666748 491.178711,417.625122 491.178711,424.138885
  C488.495880,425.624329 487.208557,424.222748 485.864258,423.408569
  C454.661896,404.510834 423.520172,385.512207 392.234344,366.753937
  C388.072418,364.258545 386.936523,361.412842 386.955872,356.697144
  C387.152313,308.712982 387.157990,260.727386 386.956909,212.743271
  C386.934509,207.395416 388.687683,204.313461 393.199219,201.537933
  C418.736511,185.827103 444.092377,169.821411 469.822906,153.722107
z"/>
</svg>
